<?xml version="1.0" encoding="UTF-8"?>
<!DOCTYPE svg PUBLIC "-//W3C//DTD SVG 1.1//EN" "http://www.w3.org/Graphics/SVG/1.1/DTD/svg11.dtd">
<svg xmlns="http://www.w3.org/2000/svg" version="1.1" width="547px" height="543px" style="shape-rendering:geometricPrecision; text-rendering:geometricPrecision; image-rendering:optimizeQuality; fill-rule:evenodd; clip-rule:evenodd" xmlns:xlink="http://www.w3.org/1999/xlink">
<g><path style="opacity:1" fill="#9f5ff4" d="M -0.5,-0.5 C 126.167,-0.5 252.833,-0.5 379.5,-0.5C 379.5,41.1667 379.5,82.8333 379.5,124.5C 321.167,124.5 262.833,124.5 204.5,124.5C 203.513,196.144 203.179,267.811 203.5,339.5C 135.5,339.5 67.5,339.5 -0.5,339.5C -0.5,226.167 -0.5,112.833 -0.5,-0.5 Z"/></g>
<g><path style="opacity:1" fill="#00d9f9" d="M 379.5,-0.5 C 435.167,-0.5 490.833,-0.5 546.5,-0.5C 546.5,41.1667 546.5,82.8333 546.5,124.5C 490.833,124.5 435.167,124.5 379.5,124.5C 379.5,82.8333 379.5,41.1667 379.5,-0.5 Z"/></g>
<g><path style="opacity:0.004" fill="#000001" d="M 268.5,192.5 C 265.167,192.5 261.833,192.5 258.5,192.5C 258.5,189.167 258.5,185.833 258.5,182.5C 257.167,182.5 255.833,182.5 254.5,182.5C 254.5,181.167 254.5,179.833 254.5,178.5C 259.167,178.5 263.833,178.5 268.5,178.5C 268.5,183.167 268.5,187.833 268.5,192.5 Z"/></g>
<g><path style="opacity:0.004" fill="#000000" d="M 293.5,182.5 C 293.5,181.167 293.5,179.833 293.5,178.5C 299.833,178.5 306.167,178.5 312.5,178.5C 312.5,182.5 312.5,186.5 312.5,190.5C 309.167,190.5 305.833,190.5 302.5,190.5C 302.5,187.833 302.5,185.167 302.5,182.5C 299.5,182.5 296.5,182.5 293.5,182.5 Z"/></g>
<g><path style="opacity:0.005" fill="#000008" d="M 393.5,178.5 C 395.833,178.5 398.167,178.5 400.5,178.5C 400.5,179.833 400.5,181.167 400.5,182.5C 399.127,182.343 397.793,182.51 396.5,183C 396.085,185.026 395.085,186.526 393.5,187.5C 393.5,184.5 393.5,181.5 393.5,178.5 Z"/></g>
<g><path style="opacity:0.004" fill="#000000" d="M 425.5,178.5 C 430.167,178.5 434.833,178.5 439.5,178.5C 439.5,181.5 439.5,184.5 439.5,187.5C 434.833,187.5 430.167,187.5 425.5,187.5C 425.5,184.5 425.5,181.5 425.5,178.5 Z"/></g>
<g><path style="opacity:0.004" fill="#000003" d="M 546.5,178.5 C 546.5,182.5 546.5,186.5 546.5,190.5C 543.5,190.5 540.5,190.5 537.5,190.5C 537.5,186.5 537.5,182.5 537.5,178.5C 540.5,178.5 543.5,178.5 546.5,178.5 Z"/></g>
<g><path style="opacity:0.005" fill="#000080" d="M 391.5,178.5 C 391.5,181.5 391.5,184.5 391.5,187.5C 389.833,187.5 388.167,187.5 386.5,187.5C 387.088,182.823 385.421,181.156 381.5,182.5C 381.5,181.167 381.5,179.833 381.5,178.5C 384.833,178.5 388.167,178.5 391.5,178.5 Z"/></g>
<g><path style="opacity:0.005" fill="#010037" d="M 391.5,178.5 C 392.167,178.5 392.833,178.5 393.5,178.5C 393.5,181.5 393.5,184.5 393.5,187.5C 392.833,187.5 392.167,187.5 391.5,187.5C 391.5,184.5 391.5,181.5 391.5,178.5 Z"/></g>
<g><path style="opacity:0.004" fill="#00000f" d="M 522.5,182.5 C 519.5,182.5 516.5,182.5 513.5,182.5C 513.5,181.167 513.5,179.833 513.5,178.5C 516.5,178.5 519.5,178.5 522.5,178.5C 522.5,179.833 522.5,181.167 522.5,182.5 Z"/></g>
<g><path style="opacity:0.004" fill="#000000" d="M 238.5,182.5 C 239.498,214.996 239.832,247.662 239.5,280.5C 241.167,280.5 242.833,280.5 244.5,280.5C 244.5,283.833 244.5,287.167 244.5,290.5C 247.833,290.5 251.167,290.5 254.5,290.5C 254.5,293.5 254.5,296.5 254.5,299.5C 249.167,299.5 243.833,299.5 238.5,299.5C 238.5,260.5 238.5,221.5 238.5,182.5 Z"/></g>
<g><path style="opacity:0.004" fill="#000008" d="M 293.5,182.5 C 293.5,185.167 293.5,187.833 293.5,190.5C 288.5,190.5 283.5,190.5 278.5,190.5C 278.5,187.833 278.5,185.167 278.5,182.5C 283.5,182.5 288.5,182.5 293.5,182.5 Z"/></g>
<g><path style="opacity:0.005" fill="#000071" d="M 513.5,184.5 C 518.015,184.359 521.015,186.359 522.5,190.5C 519.5,190.5 516.5,190.5 513.5,190.5C 513.5,188.5 513.5,186.5 513.5,184.5 Z"/></g>
<g><path style="opacity:0.004" fill="#030032" d="M 513.5,182.5 C 516.5,182.5 519.5,182.5 522.5,182.5C 522.81,183.738 523.31,183.738 524,182.5C 524.494,184.134 524.66,185.801 524.5,187.5C 525.5,187.5 526.5,187.5 527.5,187.5C 527.5,188.5 527.5,189.5 527.5,190.5C 525.833,190.5 524.167,190.5 522.5,190.5C 521.015,186.359 518.015,184.359 513.5,184.5C 513.5,183.833 513.5,183.167 513.5,182.5 Z"/></g>
<g><path style="opacity:0.004" fill="#000005" d="M 268.5,192.5 C 271.167,192.5 273.833,192.5 276.5,192.5C 276.5,194.167 276.5,195.833 276.5,197.5C 273.833,197.5 271.167,197.5 268.5,197.5C 268.5,195.833 268.5,194.167 268.5,192.5 Z"/></g>
<g><path style="opacity:1" fill="#00d9fa" d="M 546.5,215.5 C 546.5,324.5 546.5,433.5 546.5,542.5C 433.167,542.5 319.833,542.5 206.5,542.5C 206.5,504.5 206.5,466.5 206.5,428.5C 239.833,428.5 273.167,428.5 306.5,428.5C 306.5,357.5 306.5,286.5 306.5,215.5C 386.5,215.5 466.5,215.5 546.5,215.5 Z"/></g>
<g><path style="opacity:0.004" fill="#000000" d="M 254.5,255.5 C 255.5,255.5 256.5,255.5 257.5,255.5C 257.5,262.167 257.5,268.833 257.5,275.5C 256.5,275.5 255.5,275.5 254.5,275.5C 254.5,268.833 254.5,262.167 254.5,255.5 Z"/></g>
<g><path style="opacity:0.004" fill="#000000" d="M 244.5,324.5 C 247.833,324.5 251.167,324.5 254.5,324.5C 254.5,329.5 254.5,334.5 254.5,339.5C 251.167,339.5 247.833,339.5 244.5,339.5C 244.5,334.5 244.5,329.5 244.5,324.5 Z"/></g>
<g><path style="opacity:0.004" fill="#000000" d="M 224.5,345.5 C 227.833,345.5 231.167,345.5 234.5,345.5C 234.5,348.167 234.5,350.833 234.5,353.5C 231.167,353.5 227.833,353.5 224.5,353.5C 224.5,350.833 224.5,348.167 224.5,345.5 Z"/></g>
<g><path style="opacity:0.004" fill="#000005" d="M 247.5,373.5 C 247.666,368.821 247.499,364.155 247,359.5C 246.329,358.748 245.496,358.414 244.5,358.5C 244.5,356.833 244.5,355.167 244.5,353.5C 248.833,353.5 253.167,353.5 257.5,353.5C 257.5,356.833 257.5,360.167 257.5,363.5C 256.5,363.5 255.5,363.5 254.5,363.5C 254.5,366.833 254.5,370.167 254.5,373.5C 252.167,373.5 249.833,373.5 247.5,373.5 Z"/></g>
<g><path style="opacity:0.004" fill="#020030" d="M 244.5,359.5 C 244.5,359.167 244.5,358.833 244.5,358.5C 245.496,358.414 246.329,358.748 247,359.5C 247.499,364.155 247.666,368.821 247.5,373.5C 246.833,373.5 246.167,373.5 245.5,373.5C 245.819,368.637 245.486,363.97 244.5,359.5 Z"/></g>
<g><path style="opacity:0.004" fill="#000004" d="M 235.5,362.5 C 235.5,365.833 235.5,369.167 235.5,372.5C 234.513,377.305 234.179,382.305 234.5,387.5C 241.167,387.5 247.833,387.5 254.5,387.5C 254.5,384.5 254.5,381.5 254.5,378.5C 255.5,378.5 256.5,378.5 257.5,378.5C 257.5,384.833 257.5,391.167 257.5,397.5C 248.167,397.5 238.833,397.5 229.5,397.5C 230.509,392.204 230.676,386.871 230,381.5C 227.243,379.205 224.077,378.205 220.5,378.5C 219.378,376.712 219.211,374.712 220,372.5C 223.057,373.451 226.223,373.784 229.5,373.5C 229.833,370.167 230.167,366.833 230.5,363.5C 232.292,363.634 233.958,363.301 235.5,362.5 Z"/></g>
<g><path style="opacity:0.006" fill="#000069" d="M 244.5,359.5 C 245.486,363.97 245.819,368.637 245.5,373.5C 242.272,372.586 238.939,372.253 235.5,372.5C 235.5,369.167 235.5,365.833 235.5,362.5C 238.5,362.5 241.5,362.5 244.5,362.5C 244.5,361.5 244.5,360.5 244.5,359.5 Z"/></g>
<g><path style="opacity:0.004" fill="#01001d" d="M 8.5,368.5 C 13.8333,368.5 19.1667,368.5 24.5,368.5C 26.0507,371.619 27.0507,374.952 27.5,378.5C 26.8333,378.5 26.1667,378.5 25.5,378.5C 25.1021,371.303 21.7687,369.637 15.5,373.5C 13.1667,373.5 10.8333,373.5 8.5,373.5C 8.5,371.833 8.5,370.167 8.5,368.5 Z"/></g>
<g><path style="opacity:0.004" fill="#000003" d="M 24.5,368.5 C 27.8333,368.5 31.1667,368.5 34.5,368.5C 34.5,371.833 34.5,375.167 34.5,378.5C 32.1667,378.5 29.8333,378.5 27.5,378.5C 27.0507,374.952 26.0507,371.619 24.5,368.5 Z"/></g>
<g><path style="opacity:0.004" fill="#000001" d="M 96.5,368.5 C 96.5,370.167 96.5,371.833 96.5,373.5C 88.8333,373.5 81.1667,373.5 73.5,373.5C 73.5,371.833 73.5,370.167 73.5,368.5C 81.1667,368.5 88.8333,368.5 96.5,368.5 Z"/></g>
<g><path style="opacity:0.004" fill="#02003b" d="M 96.5,368.5 C 100.167,368.5 103.833,368.5 107.5,368.5C 107.5,370.167 107.5,371.833 107.5,373.5C 103.833,373.5 100.167,373.5 96.5,373.5C 96.5,371.833 96.5,370.167 96.5,368.5 Z"/></g>
<g><path style="opacity:0.004" fill="#000005" d="M 107.5,368.5 C 109.167,368.5 110.833,368.5 112.5,368.5C 112.5,370.167 112.5,371.833 112.5,373.5C 110.833,373.5 109.167,373.5 107.5,373.5C 107.5,371.833 107.5,370.167 107.5,368.5 Z"/></g>
<g><path style="opacity:0.004" fill="#000000" d="M 112.5,373.5 C 123.833,373.5 135.167,373.5 146.5,373.5C 146.5,371.833 146.5,370.167 146.5,368.5C 149.833,368.5 153.167,368.5 156.5,368.5C 156.5,371.833 156.5,375.167 156.5,378.5C 153.167,378.5 149.833,378.5 146.5,378.5C 146.5,380.167 146.5,381.833 146.5,383.5C 141.5,383.5 136.5,383.5 131.5,383.5C 131.5,384.833 131.5,386.167 131.5,387.5C 128.5,387.5 125.5,387.5 122.5,387.5C 122.5,390.833 122.5,394.167 122.5,397.5C 120.833,397.5 119.167,397.5 117.5,397.5C 117.5,399.167 117.5,400.833 117.5,402.5C 114.167,402.5 110.833,402.5 107.5,402.5C 107.5,400.833 107.5,399.167 107.5,397.5C 100.833,397.5 94.1667,397.5 87.5,397.5C 87.5,392.833 87.5,388.167 87.5,383.5C 95.8333,383.5 104.167,383.5 112.5,383.5C 112.5,380.167 112.5,376.833 112.5,373.5 Z"/></g>
<g><path style="opacity:0.004" fill="#000000" d="M 195.5,373.5 C 190.5,373.5 185.5,373.5 180.5,373.5C 180.5,371.833 180.5,370.167 180.5,368.5C 185.5,368.5 190.5,368.5 195.5,368.5C 195.5,370.167 195.5,371.833 195.5,373.5 Z"/></g>
<g><path style="opacity:0.004" fill="#010039" d="M -0.5,368.5 C 2.5,368.5 5.5,368.5 8.5,368.5C 8.5,370.167 8.5,371.833 8.5,373.5C 7.04125,373.433 5.70792,373.766 4.5,374.5C 3.07797,373.075 1.4113,372.075 -0.5,371.5C -0.5,370.5 -0.5,369.5 -0.5,368.5 Z"/></g>
<g><path style="opacity:0.004" fill="#000034" d="M 25.5,378.5 C 25.5,379.5 25.5,380.5 25.5,381.5C 22.0613,381.747 18.728,381.414 15.5,380.5C 15.5,378.167 15.5,375.833 15.5,373.5C 21.7687,369.637 25.1021,371.303 25.5,378.5 Z"/></g>
<g><path style="opacity:0.004" fill="#000000" d="M 53.5,373.5 C 53.5079,376.545 53.8413,379.545 54.5,382.5C 52.6208,383.341 50.6208,383.675 48.5,383.5C 48.5,388.167 48.5,392.833 48.5,397.5C 43.8333,397.5 39.1667,397.5 34.5,397.5C 34.5,394.167 34.5,390.833 34.5,387.5C 36.1667,387.5 37.8333,387.5 39.5,387.5C 39.5,384.5 39.5,381.5 39.5,378.5C 42.5184,378.665 45.5184,378.498 48.5,378C 49.3802,376.644 49.7135,375.144 49.5,373.5C 50.8333,373.5 52.1667,373.5 53.5,373.5 Z"/></g>
<g><path style="opacity:0.004" fill="#000004" d="M 67.5,368.5 C 68.4511,369.919 68.7845,371.585 68.5,373.5C 69.8333,373.5 71.1667,373.5 72.5,373.5C 72.7823,378.522 72.949,383.522 73,388.5C 68.2633,387.531 63.43,387.197 58.5,387.5C 58.5,385.833 58.5,384.167 58.5,382.5C 62.4896,383.384 65.3229,382.051 67,378.5C 67.4983,375.183 67.665,371.85 67.5,368.5 Z"/></g>
<g><path style="opacity:0.004" fill="#000000" d="M 195.5,373.5 C 200.5,373.5 205.5,373.5 210.5,373.5C 210.5,376.833 210.5,380.167 210.5,383.5C 208.947,385.385 206.947,386.385 204.5,386.5C 204.5,385.5 204.5,384.5 204.5,383.5C 201.5,383.5 198.5,383.5 195.5,383.5C 195.5,380.167 195.5,376.833 195.5,373.5 Z"/></g>
<g><path style="opacity:0.004" fill="#000002" d="M -0.5,371.5 C 1.4113,372.075 3.07797,373.075 4.5,374.5C 4.5,377.5 4.5,380.5 4.5,383.5C 7.8499,383.665 11.1832,383.498 14.5,383C 15.2524,382.329 15.5858,381.496 15.5,380.5C 18.728,381.414 22.0613,381.747 25.5,381.5C 24.8505,383.435 24.5172,385.435 24.5,387.5C 21.4816,387.335 18.4816,387.502 15.5,388C 14.5495,391.057 14.2161,394.223 14.5,397.5C 9.5,397.5 4.5,397.5 -0.5,397.5C -0.5,388.833 -0.5,380.167 -0.5,371.5 Z"/></g>
<g><path style="opacity:0.008" fill="#00004c" d="M 18.5,372.5 C 23.9836,372.481 25.6503,374.981 23.5,380C 16.745,380.756 15.0783,378.256 18.5,372.5 Z"/></g>
<g><path style="opacity:0.007" fill="#02001e" d="M 56.5,368.5 C 56.3354,371.518 56.502,374.518 57,377.5C 60,381.5 63,381.5 66,377.5C 66.498,374.518 66.6646,371.518 66.5,368.5C 66.8333,368.5 67.1667,368.5 67.5,368.5C 67.665,371.85 67.4983,375.183 67,378.5C 65.3229,382.051 62.4896,383.384 58.5,382.5C 57.1667,382.5 55.8333,382.5 54.5,382.5C 53.8413,379.545 53.5079,376.545 53.5,373.5C 52.9162,370.715 53.9162,369.048 56.5,368.5 Z"/></g>
<g><path style="opacity:0.008" fill="#000045" d="M 56.5,368.5 C 56.8333,368.5 57.1667,368.5 57.5,368.5C 55.9712,375.468 58.4712,378.135 65,376.5C 65.4974,373.854 65.6641,371.187 65.5,368.5C 65.8333,368.5 66.1667,368.5 66.5,368.5C 66.6646,371.518 66.498,374.518 66,377.5C 63,381.5 60,381.5 57,377.5C 56.502,374.518 56.3354,371.518 56.5,368.5 Z"/></g>
<g><path style="opacity:0.007" fill="#000070" d="M 57.5,368.5 C 60.1667,368.5 62.8333,368.5 65.5,368.5C 65.6641,371.187 65.4974,373.854 65,376.5C 58.4712,378.135 55.9712,375.468 57.5,368.5 Z"/></g>
<g><path style="opacity:0.008" fill="#020032" d="M 220.5,378.5 C 224.077,378.205 227.243,379.205 230,381.5C 230.676,386.871 230.509,392.204 229.5,397.5C 229.167,397.5 228.833,397.5 228.5,397.5C 228.666,392.821 228.499,388.155 228,383.5C 226.152,380.959 223.652,379.959 220.5,380.5C 220.5,379.833 220.5,379.167 220.5,378.5 Z"/></g>
<g><path style="opacity:0.004" fill="#000002" d="M 180.5,383.5 C 183.833,383.5 187.167,383.5 190.5,383.5C 190.5,388.167 190.5,392.833 190.5,397.5C 187.167,397.5 183.833,397.5 180.5,397.5C 180.5,392.833 180.5,388.167 180.5,383.5 Z"/></g>
<g><path style="opacity:0.004" fill="#02003b" d="M 210.5,383.5 C 210.5,384.833 210.5,386.167 210.5,387.5C 208.265,387.795 206.265,387.461 204.5,386.5C 206.947,386.385 208.947,385.385 210.5,383.5 Z"/></g>
<g><path style="opacity:0.004" fill="#000000" d="M 156.5,387.5 C 161.5,387.5 166.5,387.5 171.5,387.5C 171.5,392.5 171.5,397.5 171.5,402.5C 161.5,402.5 151.5,402.5 141.5,402.5C 141.5,403.5 141.5,404.5 141.5,405.5C 138.167,405.5 134.833,405.5 131.5,405.5C 131.5,402.833 131.5,400.167 131.5,397.5C 139.833,397.5 148.167,397.5 156.5,397.5C 156.5,394.167 156.5,390.833 156.5,387.5 Z"/></g>
<g><path style="opacity:0.005" fill="#0c0083" d="M 220.5,382.5 C 222.17,382.751 223.67,383.418 225,384.5C 225.534,388.859 225.368,393.192 224.5,397.5C 218.355,398.49 212.022,398.823 205.5,398.5C 205.5,396.833 205.5,395.167 205.5,393.5C 207.167,393.5 208.833,393.5 210.5,393.5C 210.5,391.833 210.5,390.167 210.5,388.5C 213.572,388.817 216.572,388.484 219.5,387.5C 220.309,385.929 220.643,384.262 220.5,382.5 Z"/></g>
<g><path style="opacity:0.004" fill="#000162" d="M 220.5,380.5 C 223.652,379.959 226.152,380.959 228,383.5C 228.499,388.155 228.666,392.821 228.5,397.5C 227.167,397.5 225.833,397.5 224.5,397.5C 225.368,393.192 225.534,388.859 225,384.5C 223.67,383.418 222.17,382.751 220.5,382.5C 220.5,381.833 220.5,381.167 220.5,380.5 Z"/></g>
<g><path style="opacity:0.004" fill="#000000" d="M 92.5,402.5 C 94.5,402.5 96.5,402.5 98.5,402.5C 98.5,403.5 98.5,404.5 98.5,405.5C 96.5,405.5 94.5,405.5 92.5,405.5C 92.5,404.5 92.5,403.5 92.5,402.5 Z"/></g>
<g><path style="opacity:0.004" fill="#100011" d="M -0.5,402.5 C 0.833333,403.5 0.833333,404.5 -0.5,405.5C -0.5,404.5 -0.5,403.5 -0.5,402.5 Z"/></g>
<g><path style="opacity:1" fill="#fe7f62" d="M -0.5,428.5 C 25.1667,428.5 50.8333,428.5 76.5,428.5C 76.5,466.5 76.5,504.5 76.5,542.5C 50.8333,542.5 25.1667,542.5 -0.5,542.5C -0.5,504.5 -0.5,466.5 -0.5,428.5 Z"/></g>
<g><path style="opacity:1" fill="#fe32af" d="M 76.5,428.5 C 102.833,428.5 129.167,428.5 155.5,428.5C 155.5,466.5 155.5,504.5 155.5,542.5C 129.167,542.5 102.833,542.5 76.5,542.5C 76.5,504.5 76.5,466.5 76.5,428.5 Z"/></g>
</svg>
